<svg version="1.2" xmlns="http://www.w3.org/2000/svg" viewBox="0 0 132 131" width="132" height="131">
	<title>applogo-svg</title>
	<defs>
		<linearGradient id="g1" x1="88" y1="5.5" x2="102.4" y2="30.1" gradientUnits="userSpaceOnUse">
			<stop offset="0" stop-color="#350dff"/>
			<stop offset="1" stop-color="#7c61ff"/>
		</linearGradient>
		<linearGradient id="g2" x1="2.6" y1="26.9" x2="92.7" y2="26.9" gradientUnits="userSpaceOnUse">
			<stop offset="0" stop-color="#350dff"/>
			<stop offset="1" stop-color="#7c61ff"/>
		</linearGradient>
		<linearGradient id="g3" x1="74.4" y1="88.8" x2="91.2" y2="117.7" gradientUnits="userSpaceOnUse">
			<stop offset="0" stop-color="#350dff"/>
			<stop offset="1" stop-color="#7c61ff"/>
		</linearGradient>
		<linearGradient id="g4" x1="1799.3" y1="885.7" x2="1889.4" y2="885.7" gradientUnits="userSpaceOnUse">
			<stop offset="0" stop-color="#350dff"/>
			<stop offset="1" stop-color="#7c61ff"/>
		</linearGradient>
		<linearGradient id="g5" x1="32.3" y1="76.6" x2="63.4" y2="129.9" gradientUnits="userSpaceOnUse">
			<stop offset="0" stop-color="#350dff"/>
			<stop offset="1" stop-color="#7c61ff"/>
		</linearGradient>
		<linearGradient id="g6" x1="622.6" y1="-1134.5" x2="712.7" y2="-1134.5" gradientUnits="userSpaceOnUse">
			<stop offset="0" stop-color="#350dff"/>
			<stop offset="1" stop-color="#7c61ff"/>
		</linearGradient>
	</defs>
	<style>
		.s0 { fill: #000000 } 
		.s1 { fill: #350dff } 
		.s2 { fill: url(#g1) } 
		.s3 { fill: #2e3192 } 
		.s4 { fill: url(#g2) } 
		.s5 { fill: url(#g3) } 
		.s6 { fill: url(#g4) } 
		.s7 { fill: url(#g5) } 
		.s8 { fill: url(#g6) } 
	</style>
	<g id="tykhere_Logo_H">
		<g id="Group_2917">
			<g id="Group_2916">
				<g id="Group_2914">
					<path id="Path_17621" class="s0" d="m177.9 75.6q0 0.7-0.3 1.4q-0.3 0.6-0.8 1.1q-0.5 0.4-1.1 0.7q-0.6 0.2-1.3 0.2q-0.2 0-0.4 0q-0.2 0-0.4 0q-0.2 0-0.4 0q-0.2 0-0.4-0.1q-0.7-0.1-1.4-0.3q-0.7-0.2-1.3-0.5q-0.7-0.3-1.3-0.7q-0.6-0.5-1.1-1q-0.5-0.5-0.8-1.1q-0.4-0.6-0.6-1.2q-0.3-0.7-0.4-1.3q-0.2-0.7-0.2-1.4v-14.1h-2.5c-0.9 0.1-1.8-0.3-2.5-0.9c-0.6-0.6-1-1.5-1-2.4c0-0.9 0.4-1.8 1-2.4c0.7-0.7 1.6-1 2.5-1h2.5v-10.6c0-0.9 0.4-1.8 1.1-2.4c0.6-0.6 1.5-1 2.4-1c0.9 0 1.8 0.4 2.4 1c0.7 0.6 1.1 1.5 1.1 2.4v10.6h2c0.9 0 1.8 0.3 2.4 1c0.7 0.6 1.1 1.5 1.1 2.4c0 0.9-0.4 1.8-1.1 2.4c-0.6 0.6-1.5 1-2.4 0.9h-2v13.3c0.1 0.5 0 1.1 0.4 1.5c0.3 0.2 0.9 0.2 1.3 0.2q0.6 0 1.3 0.2q0.6 0.3 1.1 0.7q0.5 0.5 0.8 1.1q0.3 0.7 0.3 1.3z" />
					<path id="Path_17622" class="s0" d="m210.7 54.7v24.4c-0.1 2.9-1 5.7-2.7 8.1c-1.7 2.4-4.1 4.2-6.8 5.2c-2.7 1-5.7 1.1-8.5 0.4c-2.9-0.7-5.4-2.3-7.3-4.5q-0.5-0.5-0.7-1.1q-0.2-0.7-0.1-1.3q0-0.7 0.3-1.3q0.3-0.6 0.8-1q0.6-0.5 1.2-0.7q0.6-0.2 1.3-0.1q0.7 0 1.3 0.3q0.6 0.3 1 0.9q0.6 0.6 1.2 1q0.7 0.5 1.4 0.9q0.8 0.3 1.6 0.5q0.8 0.1 1.6 0.1q1.5 0 2.9-0.5q1.3-0.6 2.4-1.6q1.1-1.1 1.6-2.4q0.6-1.4 0.6-2.9v-2.3q-0.7 0.4-1.5 0.8q-0.8 0.3-1.7 0.5q-0.8 0.2-1.7 0.3q-0.9 0.2-1.7 0.2c-1.8-0.1-3.6-0.4-5.2-1.1c-1.7-0.7-3.1-1.8-4.4-3c-1.2-1.3-2.2-2.8-2.9-4.5c-0.6-1.6-1-3.4-1-5.2v-10c0.1-0.8 0.5-1.7 1.1-2.3c0.6-0.6 1.5-0.9 2.3-0.9c0.9 0 1.8 0.3 2.4 0.9c0.6 0.6 1 1.5 1 2.3v10c-0.1 1.9 0.6 3.7 1.8 5c1.3 1.3 3.1 2.1 4.9 2.1c1.8 0 3.6-0.8 4.8-2.1c1.3-1.3 1.9-3.1 1.8-5v-10.1c0.1-0.9 0.4-1.7 1.1-2.3c0.6-0.7 1.5-1 2.4-1c0.9 0 1.7 0.3 2.4 1c0.6 0.6 1 1.4 1 2.3z" />
					<path id="Path_17623" class="s0" d="m242.2 78q-0.3 0.2-0.6 0.4q-0.3 0.2-0.7 0.4q-0.3 0.1-0.7 0.2q-0.3 0-0.7 0.1q-0.3 0-0.6-0.1q-0.4-0.1-0.7-0.2q-0.3-0.1-0.6-0.3q-0.2-0.1-0.5-0.3l-11.9-10.5v8.3c-0.1 0.9-0.5 1.8-1.1 2.4c-0.7 0.6-1.6 1-2.5 1c-0.9 0-1.8-0.4-2.5-1c-0.6-0.6-1-1.5-1.1-2.4v-35.6c0.1-0.9 0.5-1.8 1.1-2.4c0.7-0.6 1.6-1 2.5-1c0.9 0 1.8 0.4 2.5 1c0.6 0.6 1 1.5 1.1 2.4v18.9l11.5-7.6q0.6-0.4 1.3-0.5q0.7-0.2 1.4-0.1q0.7 0.2 1.3 0.5q0.6 0.4 1 0.9q0.4 0.6 0.6 1.3q0.1 0.6 0 1.3q-0.1 0.7-0.5 1.2q-0.4 0.6-0.9 1l-9.8 6.3l10.9 9.5q0.5 0.5 0.8 1.1q0.3 0.6 0.3 1.3q0 0.7-0.2 1.4q-0.3 0.6-0.7 1.1z" />
					<path id="Path_17624" class="s1" d="m274.1 76c-0.1 0.9-0.5 1.7-1.1 2.4c-0.7 0.6-1.6 0.9-2.5 0.9c-0.9 0-1.7-0.3-2.4-0.9c-0.7-0.7-1.1-1.5-1.1-2.4v-12.2c-0.1-1.6-0.8-3.1-1.9-4.1c-1.1-1.1-2.6-1.7-4.1-1.7c-1.6 0-3.1 0.6-4.2 1.7c-1.1 1-1.8 2.5-1.9 4.1v12.2q0 0.7-0.3 1.3q-0.3 0.6-0.8 1.1q-0.5 0.5-1.1 0.7q-0.7 0.3-1.3 0.2q-0.7 0-1.4-0.2q-0.6-0.2-1.1-0.7q-0.5-0.5-0.8-1.1q-0.3-0.6-0.3-1.3v-35.6q0-0.7 0.3-1.3q0.3-0.7 0.8-1.1q0.5-0.5 1.1-0.8q0.7-0.2 1.4-0.2q0.6 0 1.3 0.2q0.6 0.3 1.1 0.7q0.5 0.5 0.8 1.2q0.3 0.6 0.3 1.3v12.3q0.7-0.4 1.5-0.7q0.7-0.2 1.5-0.4q0.7-0.2 1.5-0.3q0.8 0 1.6 0c7.2 0 13.1 5.5 13.1 12.5z" />
					<path id="Path_17625" fill-rule="evenodd" class="s1" d="m305.2 67h-18.1q0.4 1.3 1.1 2.3q0.7 1.1 1.7 1.8q1 0.8 2.2 1.2q1.2 0.4 2.5 0.4q0.8 0 1.6-0.2q0.9-0.1 1.6-0.4q0.8-0.2 1.6-0.6q0.7-0.4 1.3-0.9q0.6-0.5 1.2-0.8q0.7-0.2 1.3-0.2q0.7 0 1.4 0.3q0.6 0.2 1.1 0.7q0.5 0.5 0.8 1.1q0.3 0.6 0.2 1.3q0 0.7-0.2 1.3q-0.3 0.6-0.8 1.1q-1.2 0.9-2.5 1.7q-1.3 0.7-2.7 1.2q-1.4 0.6-2.9 0.8q-1.5 0.2-3 0.2c-8.1 0-14.6-6.2-14.6-14c0-7.6 6.5-14 14.6-14q0.3 0 0.6 0q0.4 0 0.7 0.1q0.3 0 0.6 0q0.4 0.1 0.7 0.1q1.4 0.3 2.8 0.9q1.4 0.5 2.6 1.3q1.2 0.9 2.3 1.9q1 1.1 1.8 2.4c0.9 1.5 2 3.6 1.8 5.4q0 0.2 0 0.4q-0.1 0.2-0.1 0.5q-0.1 0.2-0.2 0.4q0 0.2-0.1 0.3q-0.2 0.5-0.5 0.8q-0.3 0.4-0.7 0.7q-0.4 0.2-0.8 0.4q-0.4 0.1-0.9 0.1zm-17.1-5.6h12.5q-0.5-0.8-1.1-1.4q-0.7-0.7-1.5-1.1q-0.7-0.4-1.6-0.7q-0.9-0.2-1.8-0.1q-1 0-1.9 0.2q-0.9 0.2-1.8 0.6q-0.8 0.5-1.5 1.1q-0.7 0.6-1.3 1.4z" />
					<path id="Path_17626" class="s1" d="m338.2 59.7q-0.5 0.5-1.1 0.8q-0.6 0.3-1.3 0.3q-0.7 0-1.4-0.2q-0.6-0.2-1.1-0.7c-1.1-0.9-2.4-1.5-3.8-1.7c-1.3-0.3-2.8-0.1-4 0.5c-1.3 0.6-2.4 1.5-3.2 2.6c-0.7 1.2-1.2 2.6-1.2 4v10.5c0 0.9-0.4 1.8-1.1 2.4c-0.6 0.6-1.5 1-2.4 1c-0.9 0-1.8-0.4-2.4-1c-0.7-0.6-1.1-1.5-1.1-2.4v-21.4q0-0.6 0.3-1.3q0.3-0.6 0.8-1q0.5-0.5 1.1-0.7q0.6-0.3 1.3-0.3q0.6 0 1.1 0.2q0.5 0.1 0.9 0.4q0.5 0.4 0.8 0.8q0.4 0.4 0.5 0.9q0.9-0.5 1.8-0.9q0.9-0.3 1.8-0.6q1-0.3 1.9-0.4q1-0.1 2-0.1q1.3 0 2.6 0.2q1.3 0.2 2.6 0.7q1.2 0.5 2.3 1.2q1.2 0.7 2.2 1.5q0.5 0.5 0.8 1.1q0.3 0.6 0.3 1.3q0 0.6-0.2 1.2q-0.3 0.7-0.8 1.1z" />
					<path id="Path_17627" fill-rule="evenodd" class="s1" d="m367.6 67h-18q0.3 1.3 1 2.3q0.8 1.1 1.8 1.8q1 0.8 2.2 1.2q1.2 0.4 2.4 0.4q0.9 0 1.7-0.2q0.8-0.1 1.6-0.4q0.8-0.2 1.5-0.6q0.7-0.4 1.4-0.9q0.5-0.5 1.2-0.8q0.6-0.2 1.3-0.2q0.7 0 1.3 0.3q0.7 0.2 1.2 0.7q0.5 0.5 0.7 1.1q0.3 0.6 0.3 1.3q0 0.7-0.3 1.3q-0.3 0.6-0.8 1.1q-1.1 0.9-2.4 1.7q-1.3 0.7-2.8 1.2q-1.4 0.6-2.9 0.8q-1.4 0.2-3 0.2c-8.1 0-14.6-6.2-14.6-14c0-7.6 6.5-14 14.6-14q0.4 0 0.7 0q0.3 0 0.6 0.1q0.4 0 0.7 0q0.3 0.1 0.6 0.1q1.5 0.3 2.9 0.9q1.3 0.5 2.5 1.3q1.3 0.9 2.3 1.9q1 1.1 1.8 2.4c1 1.5 2 3.6 1.9 5.4q0 0.2-0.1 0.4q0 0.2-0.1 0.5q0 0.2-0.1 0.4q-0.1 0.2-0.2 0.3q-0.1 0.5-0.4 0.8q-0.3 0.4-0.7 0.7q-0.4 0.2-0.8 0.4q-0.5 0.1-1 0.1zm-17-5.6h12.4q-0.4-0.8-1.1-1.4q-0.6-0.7-1.4-1.1q-0.8-0.4-1.7-0.7q-0.8-0.2-1.8-0.1q-0.9 0-1.8 0.2q-1 0.2-1.8 0.6q-0.8 0.5-1.6 1.1q-0.7 0.6-1.2 1.4z" />
				</g>
				<g id="Group_2915">
					<path id="Path_17628" class="s0" d="m165.2 99.6q0 0.1 0 0.1q0 0.1 0 0.1q0 0.1-0.1 0.1q0 0.1 0 0.1q0 0.1-0.1 0.1q0 0-0.1 0.1q0 0-0.1 0q0 0 0 0h-1.6v6.1h-1.2v-6.1h-2v-1h5.1q0.1 0.1 0.1 0.1q0 0.1 0 0.1q0 0.1 0 0.1q0 0.1 0 0.1z" />
					<path id="Path_17629" class="s0" d="m175.7 105.4q0 0.1 0 0.2q0 0.1 0 0.2q0 0.1 0 0.2q0 0-0.1 0.1q0 0.1-0.1 0.1q0 0.1-0.1 0.1q0 0-0.1 0q0 0-0.1 0h-3.9v-7.1h4.4v1h-3.1v2h2.6v0.9h-2.6v2.3c0 0 3.1 0 3.1 0z" />
					<path id="Path_17630" class="s0" d="m183.4 106.2q-0.1 0-0.2-0.1q-0.2 0-0.3-0.1q-0.1-0.1-0.2-0.1q-0.1-0.1-0.2-0.2q-0.1-0.1-0.1-0.2q-0.1-0.1-0.1-0.2q-0.1-0.1-0.1-0.2q0-0.2 0-0.3q0 0 0-0.1q0-0.1 0-0.2q0.1 0 0.1-0.1q0.1 0 0.1-0.1q0.1 0 0.2 0q0.1-0.1 0.2-0.1q0 0 0.1 0q0.1 0 0.2 0q0 0.1 0.1 0.2q0 0.2 0.1 0.3q0.1 0.1 0.2 0.2q0 0.1 0.2 0.2q0.1 0.1 0.2 0.2q0.2 0.1 0.3 0.1q0.2 0 0.3 0.1q0.2 0 0.3 0q0.2 0 0.3 0q0.2-0.1 0.3-0.1q0.1 0 0.3-0.1q0.1 0 0.2-0.1q0.1-0.1 0.2-0.2q0.1-0.1 0.1-0.2q0.1-0.1 0.1-0.2q0-0.1 0-0.2q0-0.1 0-0.2q-0.1-0.1-0.1-0.2q-0.1-0.1-0.1-0.2q-0.1-0.1-0.2-0.1q-0.1-0.1-0.3-0.2q-0.1-0.1-0.3-0.1q-0.2-0.1-0.3-0.2q-0.2 0-0.4 0q-0.2-0.1-0.5-0.2q-0.2-0.1-0.4-0.2q-0.2-0.1-0.4-0.2q-0.3-0.1-0.5-0.3q-0.1-0.1-0.2-0.2q-0.1-0.2-0.2-0.3q0-0.2-0.1-0.4q0-0.2 0-0.3q0-0.2 0-0.4q0.1-0.2 0.2-0.4q0.1-0.2 0.2-0.4q0.1-0.1 0.3-0.2q0.2-0.2 0.4-0.3q0.3-0.1 0.5-0.2q0.2 0 0.5-0.1q0.2 0 0.5 0q0.2 0 0.4 0.1q0.2 0 0.4 0q0.3 0.1 0.5 0.2q0.2 0.1 0.3 0.2q0.2 0.1 0.4 0.3q0.1 0.1 0.2 0.3q0.1 0.1 0.2 0.3q0.1 0.2 0.2 0.4q-0.1 0.1-0.2 0.1q-0.1 0.1-0.2 0.1q-0.1 0.1-0.2 0.1q-0.1 0-0.2 0q-0.1 0-0.1 0q0 0-0.1 0q0 0 0 0q-0.1 0-0.1 0q0-0.1-0.1-0.1q0 0 0-0.1q0 0-0.1 0q0-0.1 0-0.1q-0.1-0.2-0.2-0.3q-0.2-0.2-0.3-0.3q-0.2-0.1-0.4-0.2q-0.2 0-0.4 0q-1.3 0-1.3 0.9q0 0 0 0.1q0 0.1 0 0.1q0.1 0.1 0.1 0.1q0 0.1 0 0.2q0.1 0 0.1 0.1q0.1 0 0.1 0.1q0.1 0 0.1 0q0.1 0.1 0.2 0.1q0.1 0.1 0.2 0.1q0.1 0 0.2 0.1q0.1 0 0.2 0.1q0.1 0 0.2 0q0.3 0.1 0.5 0.2q0.2 0 0.3 0.1q0.2 0.1 0.4 0.2q0.2 0 0.4 0.1q0.1 0.1 0.2 0.2q0.1 0 0.2 0.1q0.1 0.1 0.2 0.2q0.1 0 0.2 0.1q0 0.1 0.1 0.2q0 0.1 0.1 0.2q0 0.2 0 0.3q0 0.1 0 0.2q0 0.1 0 0.3q0 0.1-0.1 0.3q0 0.1-0.1 0.3q0 0.1-0.1 0.3q-0.1 0.1-0.2 0.2q-0.1 0.1-0.3 0.2q-0.1 0.1-0.2 0.2q-0.2 0.1-0.3 0.2q-0.2 0-0.4 0.1q-0.1 0-0.3 0.1q-0.2 0-0.4 0q-0.2 0-0.4 0q-0.2 0-0.3 0q-0.2 0-0.4 0q-0.2 0-0.3-0.1q-0.2 0-0.4-0.1z" />
					<path id="Path_17631" class="s0" d="m198.5 99.6q0 0.1 0 0.1q0 0.1 0 0.1q0 0.1 0 0.1q-0.1 0.1-0.1 0.1q0 0.1 0 0.1q-0.1 0-0.1 0.1q-0.1 0-0.1 0q-0.1 0-0.1 0h-1.5v6.1h-1.3v-6.1h-1.9v-1h5.1q0 0.1 0 0.1q0 0.1 0 0.1q0 0.1 0 0.1q0 0.1 0 0.1z" />
					<path id="Path_17632" class="s0" d="m217.6 99.2l-2.2 4.1v3h-1.3v-3l-2.2-4.1h1.3l1.6 3l1.5-3z" />
					<path id="Path_17633" fill-rule="evenodd" class="s0" d="m224.2 105.5q-0.2-0.3-0.4-0.7q-0.1-0.3-0.2-0.6q-0.1-0.4-0.2-0.7q0-0.4 0-0.8q0-0.3 0-0.7q0.1-0.3 0.2-0.7q0.1-0.3 0.2-0.6q0.2-0.3 0.4-0.6q0.4-0.5 1-0.7q0.6-0.3 1.2-0.3q0.7 0 1.2 0.3q0.6 0.2 1.1 0.7q0.2 0.3 0.3 0.6q0.2 0.3 0.3 0.6q0.1 0.4 0.1 0.7q0.1 0.4 0.1 0.7q0 0.4-0.1 0.8q0 0.3-0.1 0.7q-0.1 0.3-0.3 0.6q-0.1 0.4-0.3 0.7q-0.5 0.4-1.1 0.7q-0.5 0.2-1.2 0.2q-0.6 0-1.2-0.2q-0.6-0.3-1-0.7zm3.5-0.7q0.1-0.2 0.2-0.5q0.1-0.2 0.2-0.5q0-0.3 0-0.5q0.1-0.3 0-0.6q0.1-0.2 0-0.5q0-0.2 0-0.5q-0.1-0.2-0.2-0.5q-0.1-0.2-0.2-0.5q-0.2-0.3-0.5-0.4q-0.4-0.2-0.8-0.2q-0.3 0-0.7 0.2q-0.3 0.1-0.6 0.4q-0.1 0.3-0.2 0.5q-0.1 0.3-0.1 0.5q-0.1 0.3-0.1 0.5q0 0.3 0 0.5q0 0.3 0 0.6q0 0.2 0.1 0.5q0 0.3 0.1 0.5q0.1 0.3 0.2 0.5q0.3 0.3 0.6 0.5q0.3 0.2 0.7 0.2q0.4 0 0.8-0.2q0.3-0.2 0.5-0.5z" />
					<path id="Path_17634" class="s0" d="m235.9 103.8v-4.6h1.3v4.8q0 0.1 0 0.3q0 0.1 0.1 0.3q0 0.1 0.1 0.2q0.1 0.2 0.2 0.3q0.1 0.1 0.2 0.2q0.2 0.1 0.3 0.1q0.2 0 0.3 0.1q0.2 0 0.3 0q0.2 0 0.3 0q0.2 0 0.3-0.1q0.2 0 0.3-0.1q0.2-0.1 0.3-0.2q0.1-0.1 0.1-0.2q0.1-0.2 0.2-0.3q0-0.2 0-0.3q0-0.2 0-0.3v-4.8h1.3v4.6q0 0.3 0 0.5q0 0.3-0.1 0.6q-0.1 0.2-0.2 0.5q-0.2 0.2-0.4 0.4q-0.2 0.2-0.4 0.3q-0.3 0.1-0.6 0.2q-0.2 0.1-0.5 0.1q-0.3 0.1-0.6 0q-2.8 0-2.8-2.6z" />
					<path id="Path_17635" fill-rule="evenodd" class="s0" d="m253.7 106.2q0 0-0.1 0.1q0 0-0.1 0q0 0 0 0q-0.1 0-0.1 0.1q-0.1 0-0.1 0q-0.1 0-0.1 0q-0.1 0-0.1 0q-0.1 0-0.1 0q-0.1 0-0.1 0q-0.1 0-0.2 0q0 0-0.1 0q0-0.1-0.1-0.1q0 0-0.1 0q0-0.1 0-0.1q-0.1 0-0.1-0.1q0 0 0-0.1l-0.9-1.7q-0.1-0.1-0.1-0.2q-0.1-0.1-0.1-0.1q-0.1-0.1-0.1-0.2q-0.1 0-0.2-0.1q0 0-0.1-0.1q-0.1 0-0.2 0q-0.1 0-0.2 0q-0.1 0-0.2 0h-0.5v2.7h-1.3v-7.1h2.3q0.3 0 0.6 0q0.2 0.1 0.5 0.1q0.3 0.1 0.5 0.2q0.2 0.1 0.5 0.3q0.1 0.1 0.3 0.3q0.1 0.2 0.2 0.4q0.1 0.2 0.1 0.4q0.1 0.3 0.1 0.5q0 0.2 0 0.3q-0.1 0.2-0.1 0.3q-0.1 0.2-0.1 0.3q-0.1 0.2-0.2 0.3q-0.1 0.1-0.2 0.2q-0.1 0.1-0.3 0.2q-0.1 0.1-0.2 0.2q-0.2 0.1-0.3 0.1q0 0.1 0.1 0.2q0.1 0 0.1 0.1q0.1 0.1 0.1 0.2q0.1 0.1 0.1 0.2zm-3-3.6q0.1 0 0.3 0q0.2 0 0.3-0.1q0.1 0 0.3-0.1q0.1 0 0.3-0.1q0-0.1 0.1-0.2q0.1-0.1 0.1-0.2q0.1-0.2 0.1-0.3q0-0.1 0-0.3q0-0.1 0-0.2q0-0.1 0-0.3q-0.1-0.1-0.2-0.2q0-0.1-0.1-0.2q-0.2-0.1-0.3-0.1q-0.1-0.1-0.3-0.1q-0.1-0.1-0.3-0.1q-0.1 0-0.3 0h-1v2.5z" />
					<path id="Path_17636" class="s0" d="m273.5 106.3q-0.1 0-0.2 0.1q-0.1 0-0.2 0q-0.1 0-0.2 0q-0.1 0-0.2 0q0 0-0.1 0q-0.1 0-0.1 0q-0.1 0-0.1 0q-0.1 0-0.1-0.1q0 0-0.1 0q0 0-0.1-0.1q0 0 0 0q0-0.1-0.1-0.1l-1.4-2.3q0 0 0-0.1q-0.1 0-0.1-0.1q-0.1 0-0.1-0.1q0 0-0.1-0.1q0 0 0 0q-0.1-0.1-0.1-0.1q0 0-0.1 0q0 0-0.1-0.1q0 0-0.1 0q-0.1 0-0.1 0q-0.1 0-0.1 0q-0.1 0-0.2 0h-0.1v3.1h-1.3v-7.1h1.3v3.1h0.6l2.1-3.1h1.3l-2.4 3.4q0.2 0.1 0.3 0.2q0.1 0.1 0.2 0.2q0.1 0.1 0.1 0.2q0.1 0.1 0.2 0.3z" />
					<path id="Path_17637" class="s0" d="m285.3 105.7q0 0.3 0 0.4q0 0.2-0.3 0.2h-1v-0.4q0-0.1-0.1-0.3q0-0.1 0-0.3q-0.1-0.1-0.2-0.3q0-0.1-0.1-0.2l-2.6-3.8v5.3h-1.3v-7.1h1.1q0.1 0 0.1 0q0 0 0 0q0.1 0 0.1 0.1q0 0 0.1 0q0 0 0 0q0 0 0 0q0.1 0.1 0.1 0.1q0 0 0 0l2.8 4v-4.2h1.2v5.7q0 0.4 0.1 0.8z" />
					<path id="Path_17638" fill-rule="evenodd" class="s0" d="m292.5 105.5q-0.2-0.3-0.4-0.7q-0.1-0.3-0.2-0.6q-0.1-0.4-0.2-0.7q0-0.4 0-0.8q0-0.3 0-0.7q0.1-0.3 0.2-0.7q0.1-0.3 0.2-0.6q0.2-0.3 0.4-0.6q0.4-0.5 1-0.7q0.6-0.3 1.2-0.3q0.7 0 1.2 0.3q0.6 0.2 1.1 0.7q0.2 0.3 0.3 0.6q0.2 0.3 0.3 0.6q0.1 0.4 0.1 0.7q0.1 0.4 0.1 0.7q0 0.4-0.1 0.8q0 0.3-0.1 0.7q-0.1 0.3-0.3 0.6q-0.1 0.4-0.3 0.7q-0.5 0.4-1.1 0.7q-0.5 0.2-1.2 0.2q-0.6 0-1.2-0.2q-0.6-0.3-1-0.7zm3.5-0.7q0.1-0.2 0.2-0.5q0.1-0.2 0.2-0.5q0-0.3 0-0.5q0-0.3 0-0.6q0-0.2 0-0.5q0-0.2 0-0.5q-0.1-0.2-0.2-0.5q-0.1-0.2-0.2-0.5q-0.2-0.3-0.6-0.4q-0.3-0.2-0.7-0.2q-0.4 0-0.7 0.2q-0.3 0.1-0.6 0.4q-0.1 0.3-0.2 0.5q-0.1 0.3-0.1 0.5q-0.1 0.3-0.1 0.5q0 0.3 0 0.5q0 0.3 0 0.6q0 0.2 0.1 0.5q0 0.3 0.1 0.5q0.1 0.3 0.2 0.5q0.3 0.3 0.6 0.5q0.3 0.2 0.7 0.2q0.4 0 0.7-0.2q0.4-0.2 0.6-0.5z" />
					<path id="Path_17639" class="s0" d="m312.2 99.2q-0.1 0.9-0.3 1.8q-0.1 0.9-0.3 1.8q-0.2 0.9-0.5 1.8q-0.2 0.9-0.5 1.7h-1.4q-0.6-1.7-0.8-2.7q-0.3-0.9-0.5-2q-0.2 1.2-0.4 2.2q-0.3 1-0.8 2.5h-1.4q-0.1-0.4-0.3-0.8q-0.1-0.4-0.3-0.9q-0.1-0.4-0.2-0.8q-0.2-0.5-0.3-0.9q-0.1-0.5-0.2-0.9q-0.1-0.5-0.2-0.9q0-0.5-0.1-0.9q-0.1-0.5-0.1-0.9h1.2q0.2 1.8 0.5 2.9q0.2 1.2 0.7 2.8q0.4-1.3 0.7-2.4q0.3-1.1 0.7-3.3h1q0.6 2.5 0.9 3.6q0.2 1 0.6 2.1q0.1-0.4 0.2-0.7q0.1-0.3 0.1-0.7q0.1-0.3 0.2-0.7q0.1-0.3 0.1-0.6q0.3-1.2 0.5-3h1.2z" />
					<path id="Path_17640" class="s0" d="m322.6 105.4v0.9h-4.1v-7.1h1.3v6.2z" />
					<path id="Path_17641" class="s0" d="m333.2 105.4q0 0.1 0 0.2q0 0.1 0 0.2q0 0.1 0 0.2q0 0-0.1 0.1q0 0.1-0.1 0.1q0 0.1-0.1 0.1q0 0-0.1 0q0 0-0.1 0h-3.9v-7.1h4.4v1h-3.1v2h2.6v0.9h-2.6v2.3z" />
					<path id="Path_17642" fill-rule="evenodd" class="s0" d="m344.5 100.2q0.2 0.2 0.4 0.5q0.2 0.4 0.3 0.7q0.1 0.3 0.2 0.7q0 0.3 0 0.7q0 0.2 0 0.5q0 0.2-0.1 0.4q0 0.3-0.1 0.5q-0.1 0.2-0.2 0.4q-0.1 0.2-0.2 0.4q-0.2 0.2-0.3 0.4q-0.2 0.1-0.3 0.2q-0.2 0.2-0.4 0.3q-0.2 0.1-0.4 0.2q-0.2 0.1-0.4 0.1q-0.3 0.1-0.5 0.1q-0.2 0-0.5 0h-2.3v-7.1h2.3q0.4 0 0.7 0.1q0.3 0 0.7 0.1q0.3 0.2 0.6 0.3q0.3 0.2 0.5 0.5zm-1 4.5q0.2-0.2 0.3-0.4q0.1-0.2 0.2-0.5q0.1-0.2 0.1-0.5q0-0.2 0-0.5q0-2.6-2.2-2.6h-0.9v5.2h0.9q0.2 0 0.4 0q0.3-0.1 0.5-0.1q0.2-0.1 0.4-0.3q0.2-0.1 0.3-0.3z" />
					<path id="Path_17643" class="s0" d="m357.4 102.5v3.1q-0.1 0.1-0.2 0.2q-0.1 0.1-0.3 0.2q-0.1 0-0.3 0.1q-0.1 0.1-0.2 0.1q-0.2 0.1-0.4 0.1q-0.2 0-0.3 0.1q-0.2 0-0.4 0q-0.2 0-0.3 0q-0.4 0-0.7 0q-0.4-0.1-0.7-0.2q-0.3-0.1-0.6-0.3q-0.3-0.2-0.5-0.4q-0.2-0.3-0.4-0.6q-0.2-0.3-0.3-0.7q-0.1-0.3-0.1-0.7q-0.1-0.4 0-0.7q0-0.3 0-0.5q0-0.3 0.1-0.5q0-0.3 0.1-0.5q0.1-0.2 0.2-0.5q0.1-0.2 0.2-0.3q0.1-0.2 0.3-0.4q0.1-0.1 0.3-0.3q0.1-0.1 0.3-0.2q0.2-0.1 0.5-0.2q0.2-0.1 0.4-0.2q0.2 0 0.5 0q0.2-0.1 0.4-0.1q0.2 0 0.4 0q0.1 0.1 0.3 0.1q0.2 0 0.4 0.1q0.1 0 0.3 0q0.1 0.1 0.3 0.2q0.1 0 0.2 0.1q0.1 0.1 0.3 0.2q0.1 0.1 0.2 0.2q0 0-0.1 0.1q0 0.1 0 0.1q-0.1 0.1-0.1 0.1q-0.1 0.1-0.1 0.2q-0.2 0.2-0.3 0.2q-0.1 0-0.1 0q0 0-0.1-0.1q0 0-0.1 0q0 0 0 0q-0.1-0.1-0.2-0.2q-0.1 0-0.2-0.1q0 0-0.1 0q-0.1-0.1-0.2-0.1q-0.1 0-0.2-0.1q-0.1 0-0.2 0q-0.1 0-0.2 0q-0.1 0-0.2 0q-0.2 0-0.4 0q-0.2 0-0.4 0.1q-0.2 0.1-0.4 0.3q-0.2 0.1-0.3 0.3q-0.2 0.2-0.3 0.4q-0.1 0.3-0.1 0.5q-0.1 0.3-0.1 0.5q0 0.3 0 0.6q0 2.7 1.9 2.7q0.1 0 0.2 0q0.1 0 0.2-0.1q0.1 0 0.2 0q0.1 0 0.2 0q0 0 0.1-0.1q0.1 0 0.1 0q0.1 0 0.1-0.1q0.1 0 0.1 0v-1.8h-0.8q-0.1 0-0.2 0q0 0-0.1-0.1q0 0-0.1 0q0-0.1 0-0.1q-0.1-0.1-0.1-0.2q0-0.1 0-0.2q0 0-0.1-0.1q0-0.1 0.1-0.2c0 0 2.6 0 2.6 0z" />
					<path id="Path_17644" class="s0" d="m368.4 105.4q0 0.1 0 0.2q0 0.1 0 0.2q0 0.1 0 0.2q-0.1 0-0.1 0.1q0 0.1-0.1 0.1q0 0.1-0.1 0.1q0 0-0.1 0q-0.1 0-0.1 0h-3.9v-7.1h4.3v1h-3v2h2.6v0.9h-2.6v2.3c0 0 3.1 0 3.1 0z" />
				</g>
			</g>
		</g>
		<g id="Group_2926">
			<g id="Group_2918">
				<path id="Path_17645" class="s2" d="m97.7 0l28.4 16.4l-29.1 16.7l-4.3 2.5l-24-13.8l-4.4-2.5l4.4-2.5l28.3-16.4z" />
			</g>
			<g id="Group_2919">
				<path id="Path_17646" class="s3" d="m96.8 33.2l-4.4 2.6l-25.2-14.4l-4.5-2.6z" />
			</g>
			<g id="Group_2920">
				<path id="Path_17647" class="s4" d="m68.7 21.7l24 13.9l-24 13.9l-4.4 2.5l-4.3-2.5l-24-13.9l-4.3-2.5l-29.1-16.7l22.3-12.9q1.4-0.8 3-1.2q1.5-0.4 3.1-0.4q1.6 0 3.1 0.4q1.5 0.4 2.9 1.2l23 13.3l4.3 2.5z" />
			</g>
			<g id="Group_2921">
				<path id="Path_17648" class="s5" d="m96.9 114.4l-28.4 16.2l0.1-33.5l0.1-5l24-13.8l4.4-2.4l-0.1 4.9l-0.1 32.8z" />
			</g>
			<g id="Group_2922">
				<path id="Path_17649" class="s3" d="m68.6 96.9l0.1-5.2l25-14.4l4.5-2.6z" />
			</g>
			<path id="Path_17650" class="s6" d="m92.7 78.3l-24 13.8l0.1-27.7v-5l4.3-2.5l24.1-13.8l4.3-2.4l29.1-16.7l-0.1 25.7q0 1.6-0.4 3.2q-0.4 1.5-1.2 2.9q-0.8 1.3-1.9 2.5q-1.2 1.1-2.6 1.9l-23 13.2l-4.3 2.5z" />
			<g id="Group_2923">
				<path id="Path_17651" class="s7" d="m33.7 113.6l-0.1-32.8v-4.9l4.3 2.4l24.1 13.8v5l0.1 33.5l-28.4-16.2z" />
			</g>
			<g id="Group_2924">
				<path id="Path_17652" class="s3" d="m32.4 74.7l4.5 2.6l25.1 14.4v5.2z" />
			</g>
			<g id="Group_2925">
				<path id="Path_17653" class="s8" d="m33.6 75.9l-4.4-2.5l-23-13.2q-1.4-0.8-2.5-1.9q-1.2-1.2-2-2.5q-0.8-1.4-1.2-2.9q-0.4-1.6-0.4-3.2l-0.1-25.7l29.1 16.7l4.3 2.4l24.1 13.8l4.3 2.5l0.1 5l0.1 27.7l-24.1-13.8z" />
			</g>
		</g>
	</g>
</svg>