<svg id="Component_76_1" data-name="Component 76 – 1" xmlns="http://www.w3.org/2000/svg" width="29.501" height="35.05" viewBox="0 0 29.501 35.05">
  <path id="Path_17621" data-name="Path 17621" d="M174.906,187.411a13.436,13.436,0,1,1,13.436-13.436A13.4,13.4,0,0,1,174.906,187.411Zm0-23.951a10.515,10.515,0,1,0,10.515,10.515A10.471,10.471,0,0,0,174.906,163.461Z" transform="translate(-161.47 -152.361)" fill="#b2b2c9"/>
  <path id="Path_17622" data-name="Path 17622" d="M315.993,115.278a1.38,1.38,0,0,1-1.461-1.461v-4.089a1.461,1.461,0,1,1,2.921,0v4.089A1.571,1.571,0,0,1,315.993,115.278Z" transform="translate(-302.557 -104.179)" fill="#b2b2c9"/>
  <path id="Path_17623" data-name="Path 17623" d="M253.01,64.034a1.38,1.38,0,0,1-1.461-1.461V60.383c0-.73-1.022-1.461-2.191-1.461h-4.381c-1.168,0-2.191.73-2.191,1.461v2.045a1.461,1.461,0,1,1-2.921,0V60.383c0-2.483,2.337-4.381,5.111-4.381h4.381c2.775,0,5.111,2.045,5.111,4.381v2.045a1.6,1.6,0,0,1-1.46,1.607Z" transform="translate(-233.732 -56.002)" fill="#b2b2c9"/>
  <path id="Path_17624" data-name="Path 17624" d="M315.993,284.648a1.38,1.38,0,0,1-1.461-1.461V277.2a1.325,1.325,0,0,1,.438-1.022l3.213-3.213a1.446,1.446,0,0,1,2.045,2.045l-2.775,2.775v5.4a1.463,1.463,0,0,1-1.461,1.461Z" transform="translate(-302.557 -255.586)" fill="#b2b2c9"/>
  <path id="Path_17626" data-name="Path 17626" d="M469.975,166.227a1.325,1.325,0,0,1-1.022-.438l-2.775-2.775a1.446,1.446,0,0,1,2.045-2.045L471,163.745a1.412,1.412,0,0,1,0,2.045,1.137,1.137,0,0,1-1.022.438Z" transform="translate(-441.935 -152.354)" fill="#b2b2c9"/>
</svg>
