<svg id="Component_78_1" data-name="Component 78 – 1" xmlns="http://www.w3.org/2000/svg" width="42" height="42" viewBox="0 0 42 42">
  <g id="Group_3572" data-name="Group 3572">
    <ellipse id="Ellipse_62" data-name="Ellipse 62" cx="21" cy="21" rx="21" ry="21" fill="#d8d2ff"/>
  </g>
  <g id="Group_3722" data-name="Group 3722" transform="translate(-567.94 -676.855)">
    <path id="Path_17686" data-name="Path 17686" d="M430.425,368.29a.5.5,0,0,1-.356-.147l-1.51-1.51h0a.5.5,0,0,1,.712-.712l1.154,1.154,2.915-2.915a.5.5,0,0,1,.711.711l-3.271,3.271a.5.5,0,0,1-.356.147Z" transform="translate(163.622 338.189)" fill="#3208ff"/>
    <path id="Path_17687" data-name="Path 17687" d="M97.433,33.467H95.419V31.455h2.013Zm0,3.522H95.419V39h2.013Zm18.114,3.019h0a5.538,5.538,0,0,1-5.535,5.535H93.91a1.514,1.514,0,0,1-1.51-1.51V23.907a1.514,1.514,0,0,1,1.51-1.51h12.076a4.536,4.536,0,0,1,4.528,4.528V34.5a5.536,5.536,0,0,1,5.032,5.509ZM105.482,26.926a.5.5,0,0,0,.5.5h3.522v-.5a3.526,3.526,0,0,0-3.522-3.522h-.5ZM99.444,25.92a.5.5,0,0,0,.5.5h3.019a.5.5,0,0,0,0-1.006H99.948A.5.5,0,0,0,99.444,25.92Zm0,2.013a.5.5,0,0,0,.5.5h3.019a.5.5,0,0,0,0-1.006H99.948A.5.5,0,0,0,99.444,27.933Zm0,3.522a.5.5,0,0,0,.5.5H108a.5.5,0,1,0,0-1.006h-8.05A.5.5,0,0,0,99.444,31.455Zm0,2.013a.5.5,0,0,0,.5.5H108a.5.5,0,1,0,0-1.006h-8.05A.5.5,0,0,0,99.444,33.467Zm-5.032-5.535a1.007,1.007,0,0,0,1.006,1.006h2.012a1.007,1.007,0,0,0,1.006-1.006V25.92a1.007,1.007,0,0,0-1.006-1.006H95.419a1.007,1.007,0,0,0-1.006,1.006Zm0,5.535a1.007,1.007,0,0,0,1.006,1.006h2.012a1.007,1.007,0,0,0,1.006-1.006V31.455a1.007,1.007,0,0,0-1.006-1.006H95.419a1.007,1.007,0,0,0-1.006,1.006Zm0,5.535a1.007,1.007,0,0,0,1.006,1.006h2.012A1.007,1.007,0,0,0,98.438,39V36.989a1.007,1.007,0,0,0-1.006-1.006H95.419a1.007,1.007,0,0,0-1.006,1.006Zm9.56,3.522a.5.5,0,0,0-.5-.5H94.916a.5.5,0,0,0,0,1.006h8.554A.5.5,0,0,0,103.973,42.524Zm0-3.522a.5.5,0,0,0-.5-.5H99.948a.5.5,0,1,0,0,1.006h3.522A.5.5,0,0,0,103.973,39Zm.5-2.013a.5.5,0,0,0-.5-.5H99.948a.5.5,0,1,0,0,1.006h4.025A.5.5,0,0,0,104.476,36.989Zm10.063,3.019a4.535,4.535,0,1,0-1.328,3.2A4.529,4.529,0,0,0,114.539,40.008ZM97.432,25.92H95.419v2.013h2.013Z" transform="translate(484.54 664.458)" fill="#3208ff"/>
  </g>
</svg>
