<svg id="Component_77_1" data-name="Component 77 – 1" xmlns="http://www.w3.org/2000/svg" width="42" height="42" viewBox="0 0 42 42">
  <circle id="Ellipse_62" data-name="Ellipse 62" cx="21" cy="21" r="21" fill="#d8d2ff"/>
  <g id="Group_3343" data-name="Group 3343" transform="translate(9 9)">
    <g id="Group_3475" data-name="Group 3475">
      <g id="Group_3560" data-name="Group 3560">
        <path id="Path_17660" data-name="Path 17660" d="M315.22,239.495l-.561,1.234a5.632,5.632,0,0,0-1.308.523l-1.234-.486a.519.519,0,0,0-.411.075l-.86.86a.341.341,0,0,0-.075.411l.486,1.234a5.64,5.64,0,0,0-.523,1.308l-1.234.561a.359.359,0,0,0-.224.336v1.2a.327.327,0,0,0,.224.336l1.234.561a5.636,5.636,0,0,0,.523,1.308l-.486,1.234a.519.519,0,0,0,.075.411l.86.86a.341.341,0,0,0,.411.075l1.234-.486a5.047,5.047,0,0,0,1.308.523l.561,1.234a.359.359,0,0,0,.336.224h1.2a.327.327,0,0,0,.336-.224l.561-1.234a5.632,5.632,0,0,0,1.308-.523l1.234.486a.519.519,0,0,0,.411-.075l.86-.86a.341.341,0,0,0,.075-.411l-.486-1.234a5.639,5.639,0,0,0,.523-1.308l1.234-.561a.359.359,0,0,0,.224-.336v-1.2a.327.327,0,0,0-.224-.336l-1.234-.561a5.632,5.632,0,0,0-.523-1.308l.486-1.234a.519.519,0,0,0-.075-.411l-.86-.86a.341.341,0,0,0-.411-.075l-1.234.486a5.044,5.044,0,0,0-1.308-.523l-.561-1.234a.359.359,0,0,0-.336-.224h-1.2A.327.327,0,0,0,315.22,239.495Zm4.037,6.654a3.1,3.1,0,1,1-3.1-3.1A3.1,3.1,0,0,1,319.258,246.149Z" transform="translate(-299.109 -229.102)" fill="#4242e2"/>
        <path id="Path_17661" data-name="Path 17661" d="M79.941,32.41H93.847l-.374-.822a3.813,3.813,0,0,1-.822-.336l-.935.374a1.148,1.148,0,0,1-.374.038,1.018,1.018,0,0,1-.785-.336L89.7,30.5a1.1,1.1,0,0,1-.262-1.2l.336-.935a3.174,3.174,0,0,1-.336-.822l-.86-.411A1.138,1.138,0,0,1,87.9,26.13v-1.2a1.06,1.06,0,0,1,.673-1.009l.9-.411a3.813,3.813,0,0,1,.336-.822l-.336-.935a1.105,1.105,0,0,1-.075-.486.72.72,0,0,1,.112-.374.883.883,0,0,1,.224-.336l.86-.86a1.018,1.018,0,0,1,.785-.336,1.591,1.591,0,0,1,.411.075l.935.336a3.174,3.174,0,0,1,.822-.336l.411-.9a1.138,1.138,0,0,1,1.009-.673h1.047V9.943a1.46,1.46,0,0,0-1.458-1.458H79.978a1.492,1.492,0,0,0-1.5,1.458V30.952a1.46,1.46,0,0,0,1.458,1.458Zm6.093-3.589H81.81V24.859h4.224ZM88.875,11.4h4.187v4.187H88.875Zm-7.439,1.944h4.9a.375.375,0,0,1,.374.374.4.4,0,0,1-.374.374h-4.9a.374.374,0,1,1,0-.748Zm0,2.43h4.9a.4.4,0,0,1,.374.374.375.375,0,0,1-.374.374h-4.9a.353.353,0,0,1-.374-.374A.375.375,0,0,1,81.436,15.775Zm0,2.43H93.062a.375.375,0,0,1,.374.374.353.353,0,0,1-.374.374H81.436a.353.353,0,0,1-.374-.374A.375.375,0,0,1,81.436,18.2Z" transform="translate(-78.483 -8.485)" fill="#4242e2"/>
      </g>
    </g>
    <path id="Path_17662" data-name="Path 17662" d="M326.355,290.3v-.112l-.112.374A.558.558,0,0,0,326.355,290.3Z" transform="translate(-315.328 -277.772)" fill="#b2b2c9"/>
  </g>
</svg>
