<svg id="Video_on_Logo" data-name="Video on Logo" xmlns="http://www.w3.org/2000/svg" xmlns:xlink="http://www.w3.org/1999/xlink" width="650.648" height="654" viewBox="0 0 650.648 654">
  <defs>
    <linearGradient id="linear-gradient" x1="0.5" x2="0.5" y2="1" gradientUnits="objectBoundingBox">
      <stop offset="0" stop-color="#3a14ff"/>
      <stop offset="1" stop-color="#785cff"/>
    </linearGradient>
  </defs>
  <g id="Group_2563" data-name="Group 2563" opacity="0.4" style="mix-blend-mode: hard-light;isolation: isolate">
    <g id="Group_2562" data-name="Group 2562" transform="translate(0 0)">
      <path id="Path_17247" data-name="Path 17247" d="M600.15,318.717c30.1-17.8,57.854-27.026,57.854-74.03V121.734L346.45,297.267V654l144.445-82.1V380.111s81.441-44.949,109.255-61.395ZM635.34,82.1,493.723,0,326.909,96.258S206.25,27.207,204.29,26.019c-24.111-14.613-54.748-24.693-80.8-3.37L70.477,52.557C52.077,63.7,36.421,72.306,17.9,82.1,88.093,123.3,326.62,263.3,326.62,263.3Z" transform="translate(-7.356)" fill="url(#linear-gradient)"/>
      <path id="Path_17249" data-name="Path 17249" d="M57.722,398.29C27.691,380.55,0,371.35,0,324.494V201.93L310.845,376.909V732.515L166.729,650.671V459.491s-81.255-44.807-109.006-61.2Z" transform="translate(0 -79.445)" fill="url(#linear-gradient)"/>
    </g>
  </g>
  <g id="Group_2441" data-name="Group 2441" transform="translate(257.646 182.182)">
    <circle id="Ellipse_3" data-name="Ellipse 3" cx="74.737" cy="74.737" r="74.737" transform="translate(0 0)" fill="#fff" opacity="0.67"/>
    <g id="Group_2428" data-name="Group 2428" transform="translate(23.489 23.489)">
      <circle id="Ellipse_3-2" data-name="Ellipse 3" cx="51.249" cy="51.249" r="51.249" transform="translate(0 0)" fill="#fff"/>
      <path id="Polygon_1" data-name="Polygon 1" d="M13.187,3.27a2,2,0,0,1,3.522,0l11.6,21.541a2,2,0,0,1-1.761,2.948H3.348a2,2,0,0,1-1.761-2.948Z" transform="translate(70.467 36.301) rotate(90)" fill="url(#linear-gradient)"/>
    </g>
  </g>
</svg>
