<svg xmlns="http://www.w3.org/2000/svg" xmlns:xlink="http://www.w3.org/1999/xlink" width="47" height="28.5" viewBox="0 0 47 28.5">
  <defs>
    <filter id="Rectangle_594" x="0" y="8" width="12" height="20.5" filterUnits="userSpaceOnUse">
      <feOffset dx="-2" dy="5" input="SourceAlpha"/>
      <feGaussianBlur stdDeviation="1.5" result="blur"/>
      <feFlood flood-opacity="0.071"/>
      <feComposite operator="in" in2="blur"/>
      <feComposite in="SourceGraphic"/>
    </filter>
    <filter id="Rectangle_595" x="6" y="0" width="12" height="28.5" filterUnits="userSpaceOnUse">
      <feOffset dx="-2" dy="5" input="SourceAlpha"/>
      <feGaussianBlur stdDeviation="1.5" result="blur-2"/>
      <feFlood flood-opacity="0.071"/>
      <feComposite operator="in" in2="blur-2"/>
      <feComposite in="SourceGraphic"/>
    </filter>
    <filter id="Rectangle_596" x="12" y="13" width="12" height="15.5" filterUnits="userSpaceOnUse">
      <feOffset dx="-2" dy="5" input="SourceAlpha"/>
      <feGaussianBlur stdDeviation="1.5" result="blur-3"/>
      <feFlood flood-opacity="0.071"/>
      <feComposite operator="in" in2="blur-3"/>
      <feComposite in="SourceGraphic"/>
    </filter>
    <filter id="Rectangle_597" x="18" y="10" width="12" height="18.5" filterUnits="userSpaceOnUse">
      <feOffset dx="-2" dy="5" input="SourceAlpha"/>
      <feGaussianBlur stdDeviation="1.5" result="blur-4"/>
      <feFlood flood-opacity="0.071"/>
      <feComposite operator="in" in2="blur-4"/>
      <feComposite in="SourceGraphic"/>
    </filter>
    <filter id="Rectangle_598" x="23" y="16" width="12" height="12.5" filterUnits="userSpaceOnUse">
      <feOffset dx="-2" dy="5" input="SourceAlpha"/>
      <feGaussianBlur stdDeviation="1.5" result="blur-5"/>
      <feFlood flood-opacity="0.071"/>
      <feComposite operator="in" in2="blur-5"/>
      <feComposite in="SourceGraphic"/>
    </filter>
    <filter id="Rectangle_599" x="29" y="5" width="12" height="23.5" filterUnits="userSpaceOnUse">
      <feOffset dx="-2" dy="5" input="SourceAlpha"/>
      <feGaussianBlur stdDeviation="1.5" result="blur-6"/>
      <feFlood flood-opacity="0.071"/>
      <feComposite operator="in" in2="blur-6"/>
      <feComposite in="SourceGraphic"/>
    </filter>
    <filter id="Rectangle_600" x="35" y="2" width="12" height="26.5" filterUnits="userSpaceOnUse">
      <feOffset dx="-2" dy="5" input="SourceAlpha"/>
      <feGaussianBlur stdDeviation="1.5" result="blur-7"/>
      <feFlood flood-opacity="0.071"/>
      <feComposite operator="in" in2="blur-7"/>
      <feComposite in="SourceGraphic"/>
    </filter>
  </defs>
  <g id="Component_36_1" data-name="Component 36 – 1" transform="translate(6.5)">
    <g transform="matrix(1, 0, 0, 1, -6.5, 0)" filter="url(#Rectangle_594)">
      <path id="Rectangle_594-2" data-name="Rectangle 594" d="M1.5,0h0A1.5,1.5,0,0,1,3,1.5V11a0,0,0,0,1,0,0H0a0,0,0,0,1,0,0V1.5A1.5,1.5,0,0,1,1.5,0Z" transform="translate(6.5 8)" fill="#4ecc48"/>
    </g>
    <g transform="matrix(1, 0, 0, 1, -6.5, 0)" filter="url(#Rectangle_595)">
      <path id="Rectangle_595-2" data-name="Rectangle 595" d="M1.5,0h0A1.5,1.5,0,0,1,3,1.5V19a0,0,0,0,1,0,0H0a0,0,0,0,1,0,0V1.5A1.5,1.5,0,0,1,1.5,0Z" transform="translate(12.5)" fill="#4ecc48"/>
    </g>
    <g transform="matrix(1, 0, 0, 1, -6.5, 0)" filter="url(#Rectangle_596)">
      <path id="Rectangle_596-2" data-name="Rectangle 596" d="M1.5,0h0A1.5,1.5,0,0,1,3,1.5V6A0,0,0,0,1,3,6H0A0,0,0,0,1,0,6V1.5A1.5,1.5,0,0,1,1.5,0Z" transform="translate(18.5 13)" fill="#4ecc48"/>
    </g>
    <g transform="matrix(1, 0, 0, 1, -6.5, 0)" filter="url(#Rectangle_597)">
      <path id="Rectangle_597-2" data-name="Rectangle 597" d="M1.5,0h0A1.5,1.5,0,0,1,3,1.5V9A0,0,0,0,1,3,9H0A0,0,0,0,1,0,9V1.5A1.5,1.5,0,0,1,1.5,0Z" transform="translate(24.5 10)" fill="#4ecc48"/>
    </g>
    <g transform="matrix(1, 0, 0, 1, -6.5, 0)" filter="url(#Rectangle_598)">
      <path id="Rectangle_598-2" data-name="Rectangle 598" d="M1.5,0h0A1.5,1.5,0,0,1,3,1.5V3A0,0,0,0,1,3,3H0A0,0,0,0,1,0,3V1.5A1.5,1.5,0,0,1,1.5,0Z" transform="translate(29.5 16)" fill="#4ecc48"/>
    </g>
    <g transform="matrix(1, 0, 0, 1, -6.5, 0)" filter="url(#Rectangle_599)">
      <path id="Rectangle_599-2" data-name="Rectangle 599" d="M1.5,0h0A1.5,1.5,0,0,1,3,1.5V14a0,0,0,0,1,0,0H0a0,0,0,0,1,0,0V1.5A1.5,1.5,0,0,1,1.5,0Z" transform="translate(35.5 5)" fill="#4ecc48"/>
    </g>
    <g transform="matrix(1, 0, 0, 1, -6.5, 0)" filter="url(#Rectangle_600)">
      <path id="Rectangle_600-2" data-name="Rectangle 600" d="M1.5,0h0A1.5,1.5,0,0,1,3,1.5V17a0,0,0,0,1,0,0H0a0,0,0,0,1,0,0V1.5A1.5,1.5,0,0,1,1.5,0Z" transform="translate(41.5 2)" fill="#4ecc48"/>
    </g>
  </g>
</svg>
