<svg id="Component_70_1" data-name="Component 70 – 1" xmlns="http://www.w3.org/2000/svg" width="58" height="58" viewBox="0 0 58 58">
  <circle id="Ellipse_53" data-name="Ellipse 53" cx="29" cy="29" r="29" fill="#6bc961"/>
  <path id="Icon_awesome-file-alt" data-name="Icon awesome-file-alt" d="M12.44,7.553V0H1.333A1.33,1.33,0,0,0,0,1.333V27.1a1.33,1.33,0,0,0,1.333,1.333h18.66A1.33,1.33,0,0,0,21.325,27.1V8.885H13.773A1.337,1.337,0,0,1,12.44,7.553Zm3.554,13.106a.668.668,0,0,1-.666.666H6a.668.668,0,0,1-.666-.666v-.444A.668.668,0,0,1,6,19.548h9.33a.668.668,0,0,1,.666.666Zm0-3.554a.668.668,0,0,1-.666.666H6a.668.668,0,0,1-.666-.666V16.66A.668.668,0,0,1,6,15.994h9.33a.668.668,0,0,1,.666.666Zm0-4v.444a.668.668,0,0,1-.666.666H6a.668.668,0,0,1-.666-.666v-.444A.668.668,0,0,1,6,12.44h9.33A.668.668,0,0,1,15.994,13.106ZM21.325,6.77v.339H14.217V0h.339A1.332,1.332,0,0,1,15.5.389l5.437,5.442A1.329,1.329,0,0,1,21.325,6.77Z" transform="translate(18.837 14.783)" fill="#eff5fe"/>
</svg>
