<svg id="Component_71_1" data-name="Component 71 – 1" xmlns="http://www.w3.org/2000/svg" width="58" height="58" viewBox="0 0 58 58">
  <circle id="Ellipse_60" data-name="Ellipse 60" cx="29" cy="29" r="29" fill="#fab976"/>
  <path id="Icon_material-library-books" data-name="Icon material-library-books" d="M5.746,8.491H3V27.71a2.754,2.754,0,0,0,2.746,2.746H24.964V27.71H5.746ZM27.71,3H11.237A2.754,2.754,0,0,0,8.491,5.746V22.219a2.754,2.754,0,0,0,2.746,2.746H27.71a2.754,2.754,0,0,0,2.746-2.746V5.746A2.754,2.754,0,0,0,27.71,3ZM26.337,15.355H12.609V12.609H26.337Zm-5.491,5.491H12.609V18.1h8.237ZM26.337,9.864H12.609V7.118H26.337Z" transform="translate(12.272 12.272)" fill="#fff"/>
</svg>
